<?xml version="1.0" standalone="no"?>
<!DOCTYPE svg PUBLIC "-//W3C//DTD SVG 20010904//EN"
 "http://www.w3.org/TR/2001/REC-SVG-20010904/DTD/svg10.dtd">
<svg version="1.0" xmlns="http://www.w3.org/2000/svg"
 width="980.088112pt" height="979.866557pt" viewBox="0 0 980.088112 979.866557"
 preserveAspectRatio="xMidYMid meet">
<metadata>
Created by potrace 1.12, written by Peter Selinger 2001-2015
</metadata>
<g transform="translate(0.221062,980.000000) scale(0.100000,-0.100000)"
fill="#FFF" stroke="none">
<path d="M3480 6655 c0 -1730 4 -3145 8 -3145 5 0 46 39 93 88 46 48 512 518
1036 1045 l952 957 87 -61 c1004 -702 1413 -1461 1279 -2374 -71 -487 -285
-914 -614 -1227 -290 -276 -658 -448 -1098 -515 -95 -14 -179 -18 -433 -17
-408 1 -713 28 -1075 95 -1140 213 -2280 817 -3609 1912 l-108 89 7 -53 c43
-311 332 -935 635 -1371 775 -1114 1924 -1810 3323 -2013 505 -73 1133 -84
1731 -29 1139 103 2030 421 2711 967 133 107 399 375 509 512 446 560 727
1259 856 2130 69 469 14 993 -159 1505 -287 850 -922 1738 -1675 2344 -88 70
-230 176 -265 196 -13 7 103 128 589 617 333 334 803 807 1045 1051 l440 442
-3133 0 -3132 0 0 -3145z"/>
</g>
</svg>
